<?xml version="1.0" encoding="UTF-8" standalone="no"?>
<!-- Uploaded to: SVG Repo, www.svgrepo.com, Generator: SVG Repo Mixer Tools -->

<svg
   fill="#000000"
   version="1.1"
   id="Capa_1"
   width="42"
   height="42.000004"
   viewBox="0 0 2.3624475 2.3624477"
   xml:space="preserve"
   sodipodi:docname="05_Romano.svg"
   inkscape:version="1.1.2 (0a00cf5339, 2022-02-04)"
   xmlns:inkscape="http://www.inkscape.org/namespaces/inkscape"
   xmlns:sodipodi="http://sodipodi.sourceforge.net/DTD/sodipodi-0.dtd"
   xmlns="http://www.w3.org/2000/svg"
   xmlns:svg="http://www.w3.org/2000/svg"><defs
   id="defs17" /><sodipodi:namedview
   id="namedview15"
   pagecolor="#ffffff"
   bordercolor="#666666"
   borderopacity="1.0"
   inkscape:pageshadow="2"
   inkscape:pageopacity="0.0"
   inkscape:pagecheckerboard="0"
   showgrid="false"
   fit-margin-top="0"
   fit-margin-left="0"
   fit-margin-right="0"
   fit-margin-bottom="0"
   inkscape:zoom="18.309522"
   inkscape:cx="21.000002"
   inkscape:cy="21.000002"
   inkscape:window-width="1920"
   inkscape:window-height="1019"
   inkscape:window-x="0"
   inkscape:window-y="30"
   inkscape:window-maximized="1"
   inkscape:current-layer="Capa_1" />
<g
   id="g12"
   transform="matrix(0.05250117,0,0,0.05250117,-3.7181665e-5,0)">
	<g
   id="g10">
		<g
   id="g8">
			<path
   d="M 41.611,4.93 C 37.418,1.707 32.397,0 27.097,0 13.966,0 3.28,10.684 3.28,23.818 c 0,2.972 0.544,5.875 1.616,8.631 0.087,0.229 0.265,0.187 0.358,0.156 0.233,-0.073 9.577,-3.727 9.577,-3.727 0.141,-0.054 0.214,-0.214 0.157,-0.357 -0.58,-1.494 -0.876,-3.078 -0.877,-4.705 0,-7.16 5.825,-12.984 12.985,-12.984 2.893,0 5.626,0.927 7.907,2.684 0.062,0.045 0.134,0.066 0.207,0.057 0.072,-0.011 0.141,-0.047 0.186,-0.106 L 41.661,5.321 C 41.706,5.265 41.725,5.189 41.718,5.117 41.708,5.041 41.668,4.975 41.611,4.93 Z"
   id="path2" />
			<path
   d="m 24.682,12.367 c -0.066,-0.061 -0.159,-0.084 -0.247,-0.064 -2.575,0.596 -4.908,2.065 -6.569,4.138 -0.061,0.077 -0.075,0.176 -0.045,0.266 0.034,0.09 0.109,0.161 0.203,0.178 0.833,0.183 1.668,0.557 2.485,1.112 0.05,0.034 0.103,0.048 0.156,0.048 0.065,0 0.13,-0.022 0.184,-0.067 1.148,-0.995 2.45,-1.778 3.875,-2.324 0.126,-0.047 0.197,-0.178 0.174,-0.31 -0.184,-0.979 -0.225,-1.9 -0.125,-2.737 0.011,-0.089 -0.024,-0.179 -0.091,-0.24 z"
   id="path4" />
			<path
   d="m 29.688,15.901 c -6.447,0 -11.694,4.732 -11.694,10.552 0,2.589 0.573,5.127 1.575,6.967 0.947,1.743 -0.862,3.663 -2.313,5.203 -0.993,1.054 -1.778,1.887 -1.617,2.574 0.069,0.301 0.306,0.528 0.703,0.68 0.499,0.188 1.101,0.289 1.739,0.289 1.806,0 3.591,-0.785 4.778,-2.1 1.446,-1.601 2.056,-3.968 1.759,-6.848 -0.074,-0.736 0.075,-1.368 0.409,-1.738 0.2,-0.224 0.46,-0.343 0.749,-0.343 1.223,0 3.229,2.138 3.755,8.032 0.347,3.869 3.854,5.829 10.425,5.829 0,0 0.528,0 0.629,-0.309 0.145,-0.443 -0.395,-0.936 -1.777,-2.11 -1.319,-1.122 -3.313,-2.817 -3.209,-3.806 0.023,-0.236 0.181,-0.432 0.479,-0.593 1.021,-0.56 1.601,-1.188 1.709,-1.885 0.082,-0.545 -0.129,-1.104 -0.617,-1.619 -0.306,-0.319 -1,-0.783 -1.877,-1.373 -1.283,-0.858 -3.586,-2.405 -3.727,-3.176 h 9.542 c 0.073,0 0.142,-0.027 0.196,-0.079 0.051,-0.054 0.079,-0.124 0.079,-0.196 L 41.381,26.426 C 41.37,20.624 36.122,15.901 29.688,15.901 Z m -4.709,12.891 c -0.791,0 -1.438,-0.644 -1.438,-1.435 0,-0.791 0.646,-1.435 1.438,-1.435 0.792,0 1.434,0.644 1.434,1.435 0,0.791 -0.643,1.435 -1.434,1.435 z m 12.828,-0.286 h -8.45 c -0.665,0 -1.207,-0.514 -1.207,-1.147 0,-0.633 0.542,-1.147 1.207,-1.147 h 8.45 c 0.665,0 1.204,0.515 1.204,1.147 0,0.633 -0.539,1.147 -1.204,1.147 z"
   id="path6" />
		</g>
	</g>
</g>
</svg>
