<?xml version="1.0" encoding="UTF-8" standalone="no"?>
<!-- Uploaded to: SVG Repo, www.svgrepo.com, Generator: SVG Repo Mixer Tools -->

<svg
   width="41.999969"
   height="41.999805"
   viewBox="0 0 1.2599991 1.2599942"
   fill="none"
   version="1.1"
   id="svg4"
   sodipodi:docname="b.svg"
   inkscape:version="1.2.2 (b0a8486541, 2022-12-01)"
   xmlns:inkscape="http://www.inkscape.org/namespaces/inkscape"
   xmlns:sodipodi="http://sodipodi.sourceforge.net/DTD/sodipodi-0.dtd"
   xmlns="http://www.w3.org/2000/svg"
   xmlns:svg="http://www.w3.org/2000/svg">
  <defs
     id="defs8" />
  <sodipodi:namedview
     id="namedview6"
     pagecolor="#ffffff"
     bordercolor="#000000"
     borderopacity="0.25"
     inkscape:showpageshadow="2"
     inkscape:pageopacity="0.0"
     inkscape:pagecheckerboard="0"
     inkscape:deskcolor="#d1d1d1"
     showgrid="false"
     inkscape:zoom="19.190565"
     inkscape:cx="21.025957"
     inkscape:cy="20.999903"
     inkscape:window-width="1920"
     inkscape:window-height="1008"
     inkscape:window-x="0"
     inkscape:window-y="0"
     inkscape:window-maximized="1"
     inkscape:current-layer="svg4" />
  <path
     d="m 0.4657654,0.6275475 0.041998,-0.012963 z m 0.020392,-0.063873 -0.026702,-0.034911 z m 0.021882,0.2008314 -0.041998,0.012963 z m 0.24256,0 -0.041996,-0.012963 z m 0.021883,-0.2008314 -0.0267,0.034917 v 0 z m 0.020394,0.063873 0.041996,0.012963 z M 0.664855,0.4813617 l 0.0267,-0.034912 z m -0.071069,0 0.0267,0.034914 z m 0.5158709,0.4856106 c 0.024274,0 0.043953,-0.019679 0.043953,-0.043953 0,-0.024274 -0.019679,-0.043953 -0.043953,-0.043953 z M 0.7928763,1.0833079 0.7511734,1.0694245 Z m -0.076139,0.089548 c -0.00767,0.023032 0.00478,0.047915 0.027814,0.055586 0.023031,0.00767 0.047921,-0.00479 0.055592,-0.02782 z M 0.1610267,0.8790657 c -0.024274,0 -0.043953,0.019679 -0.043953,0.043953 0,0.024274 0.019679,0.043953 0.043953,0.043953 z m 0.316783,0.2042422 0.041701,-0.013883 z m -0.00727,0.1173142 c 0.00767,0.023032 0.032556,0.035485 0.055588,0.02782 0.023032,-0.00767 0.035485,-0.032555 0.02782,-0.055586 z M 0.4085142,0.9451422 0.382795,0.9807854 Z M 0.2523505,0.2466905 c -0.00628,-0.02345 -0.030373,-0.037371 -0.053823,-0.031095 -0.023449,0.00628 -0.037371,0.030373 -0.031095,0.053823 z m -0.017962,0.1028958 -0.042459,0.011363 v 0 z m -0.097156,0.2562951 -0.024237,-0.036669 v 0 z m -0.115116,0.023407 c -0.02025,0.013385 -0.025815,0.040654 -0.012429,0.060902 0.013386,0.020254 0.040654,0.025815 0.060904,0.01243 z M 1.0949643,0.2694231 c 0.00628,-0.023449 -0.00765,-0.047547 -0.031096,-0.053823 -0.023448,-0.00628 -0.047546,0.00765 -0.053822,0.031095 z m -0.066956,0.080168 -0.042459,-0.011364 z m 0.097154,0.2562957 -0.024239,0.036669 z m 0.066639,0.096738 c 0.020254,0.013385 0.047522,0.00782 0.060907,-0.01243 0.013385,-0.020248 0.00782,-0.047516 -0.01243,-0.060902 z M 0.8697066,0.1515644 c 0.019838,-0.013991 0.024573,-0.041414 0.010584,-0.061251 -0.013989,-0.019838 -0.041416,-0.024577 -0.061253,-0.010586 z m -0.1027159,0.018655 0.025335,0.035919 z m -0.2737985,-0.00296 -0.026103,0.035362 v 0 z M 0.4316441,0.0671952 c -0.01953,-0.014417 -0.04705,-0.010271 -0.061466,0.00926 -0.014417,0.01953 -0.010271,0.047049 0.00926,0.061465 z m 0.3612322,0.5257522 -0.041996,0.012963 z m -0.3271109,0 0.041998,0.012963 z m 0.7049685,0.03705 c 0,0.2994391 -0.2424463,0.5420906 -0.5414107,0.5420906 v 0.087906 c 0.3476119,0 0.6293173,-0.2821097 0.6293173,-0.6299971 z M 0.6293232,1.1720877 c -0.2989697,0 -0.5414166,-0.2426515 -0.5414166,-0.5420906 H 0 C 0,0.9778845 0.2817083,1.2599942 0.6293232,1.2599942 Z M 0.0879066,0.6299971 c 0,-0.2994361 0.2424469,-0.5420905 0.5414166,-0.5420905 V 0 C 0.2817083,0 0,0.2821074 0,0.6299971 Z M 0.6293232,0.0879066 c 0.2989644,0 0.5414107,0.2426544 0.5414107,0.5420905 h 0.087907 C 1.2586405,0.2821074 0.9769351,0 0.6293232,0 Z m 0.00883,0.4283687 0.107627,0.082316 0.053406,-0.069827 -0.1076328,-0.082314 z m 0.1127197,0.098309 -0.042271,0.1369584 0.083998,0.025927 0.042271,-0.1369585 z m -0.0562,0.1472727 H 0.5639676 V 0.849764 H 0.6946729 Z M 0.5500373,0.751543 0.5077633,0.6145846 l -0.083997,0.025927 0.042274,0.1369585 z m -0.037179,-0.1529516 0.1076269,-0.082316 -0.0534,-0.069826 -0.1076299,0.082314 z M 1.109656,0.8790661 H 1.015004 v 0.087907 H 1.109656 Z M 0.751173,1.0694249 0.716737,1.1728558 0.800143,1.2006228 0.834579,1.097192 Z M 1.0150045,0.8790657 c -0.03971,0 -0.073191,-6.44e-5 -0.1004538,0.00305 -0.028388,0.00325 -0.054449,0.01032 -0.078102,0.027386 l 0.051443,0.071286 c 0.007,-0.00506 0.016644,-0.00905 0.036639,-0.011334 0.021127,-0.00241 0.048735,-0.00248 0.090473,-0.00248 z M 0.8345792,1.0971913 c 0.013198,-0.03964 0.021994,-0.065848 0.030967,-0.085158 0.0085,-0.018285 0.015331,-0.02619 0.022346,-0.031248 L 0.8364486,0.909499 C 0.8128016,0.926565 0.7978696,0.949063 0.7858266,0.974989 0.7742526,0.99989 0.7637326,1.031701 0.7511736,1.069424 Z M 0.1610267,0.9669723 h 0.094652 v -0.087907 h -0.094652 z m 0.2750802,0.130219 0.034438,0.1034308 0.083408,-0.027767 -0.034442,-0.1034309 z M 0.2556786,0.9669723 c 0.041739,0 0.069348,6.45e-5 0.090473,0.00248 0.019999,0.00229 0.029636,0.00628 0.036644,0.011334 l 0.051439,-0.071286 c -0.023653,-0.017066 -0.049709,-0.024139 -0.0781,-0.027386 -0.027265,-0.00311 -0.060744,-0.00305 -0.1004555,-0.00305 z M 0.5195103,1.0694245 C 0.5069531,1.0317009 0.4964319,0.9998904 0.484861,0.9749894 0.4728149,0.9490687 0.4578825,0.9265646 0.4342339,0.909499 l -0.051439,0.071286 c 0.00701,0.00506 0.013848,0.012963 0.022345,0.031248 0.00897,0.01931 0.017769,0.045518 0.030967,0.085158 z m -0.3520782,-0.8000067 0.024498,0.091532 0.084918,-0.022727 -0.024497,-0.091532 z m -0.054436,0.2997948 -0.090879,0.060075 0.048475,0.073332 0.090879,-0.060069 z m 0.078934,-0.2082629 c 0.010802,0.04036 0.017886,0.067086 0.021025,0.08815 0.00297,0.019948 0.00162,0.030325 -0.00145,0.038431 l 0.082198,0.031159 c 0.010337,-0.027268 0.010417,-0.054271 0.0062,-0.08255 -0.00405,-0.027163 -0.012775,-0.059512 -0.023054,-0.097918 z m -0.03046,0.2816005 c 0.033141,-0.021906 0.061113,-0.04032 0.082148,-0.05796 0.021903,-0.018361 0.039743,-0.038626 0.050081,-0.065901 L 0.2115009,0.487531 c -0.00307,0.0081 -0.00893,0.01676 -0.024365,0.029705 -0.016304,0.013667 -0.03931,0.028956 -0.07414,0.051976 z m 0.8485762,-0.3958545 -0.024497,0.091532 0.084918,0.022727 0.024497,-0.091532 z M 1.1009243,0.642556 1.1918023,0.702625 1.2402793,0.629293 1.1494013,0.569218 Z M 0.9855499,0.3382276 c -0.010279,0.038406 -0.019005,0.070755 -0.023055,0.097918 -0.00421,0.028279 -0.00414,0.055282 0.0062,0.08255 l 0.082199,-0.031159 c -0.00307,-0.00811 -0.00442,-0.018483 -0.00145,-0.038432 0.00314,-0.021064 0.010221,-0.047789 0.021027,-0.08815 z m 0.163852,0.2309909 c -0.034834,-0.02302 -0.057837,-0.03831 -0.07414,-0.051982 -0.015436,-0.01294 -0.021297,-0.021596 -0.024368,-0.0297 l -0.082199,0.031159 c 0.010338,0.027274 0.028177,0.04754 0.050083,0.065901 0.021033,0.01764 0.049005,0.036053 0.082146,0.05796 z m -0.3303646,-0.4894908 -0.077375,0.054574 0.050664,0.071837 0.077381,-0.054574 z m -0.2997439,0.052168 -0.087649,-0.0647 -0.052207,0.070725 0.087652,0.064701 z m 0.2223685,0.00241 c -0.034125,0.024065 -0.056735,0.039931 -0.075395,0.050139 -0.017669,0.00967 -0.027843,0.011958 -0.036469,0.011864 l -9.553e-4,0.087902 c 0.029167,3.152e-4 0.054537,-0.00893 0.079608,-0.022643 0.02408,-0.013171 0.051408,-0.032527 0.083875,-0.055424 z m -0.2745727,0.06832 c 0.031964,0.023594 0.058868,0.043537 0.082655,0.057225 0.024772,0.014253 0.049937,0.024044 0.079098,0.02436 l 9.553e-4,-0.087902 c -0.00863,-9.32e-5 -0.018748,-0.0026 -0.036206,-0.01265 -0.018437,-0.010609 -0.040701,-0.02696 -0.074299,-0.051758 z M 0.7457818,0.598591 c 0.00247,0.00189 0.00421,0.00444 0.0051,0.00732 L 0.8348738,0.579979 C 0.8287338,0.560083 0.8165248,0.542027 0.7991898,0.528765 Z m 0.0051,0.00732 c 8.556e-4,0.00278 8.908e-4,0.00578 -5.9e-6,0.00867 l 0.083998,0.025927 c 0.00624,-0.020189 0.00595,-0.041257 0,-0.060532 z m 0.2421005,-0.1434032 -0.2169241,0.089827 0.033633,0.08122 0.2169241,-0.089829 z M 0.6915552,0.4464494 c -0.018361,-0.014044 -0.04032,-0.021075 -0.062232,-0.021075 v 0.087906 c 0.00313,0 0.00621,9.904e-4 0.00883,0.00299 z m -0.062232,-0.021075 c -0.021912,0 -0.043877,0.00703 -0.062238,0.021075 l 0.0534,0.069826 c 0.00262,-0.002 0.0057,-0.00299 0.00884,-0.00299 z m 0.043953,0.043953 V 0.2402551 h -0.087907 v 0.2290728 z m 0.035327,0.2822147 c -9.025e-4,0.00294 -0.00264,0.00539 -0.00493,0.00719 l 0.054385,0.069065 c 0.015958,-0.012565 0.028242,-0.029923 0.034541,-0.050329 z m -0.00493,0.00719 c -0.00253,0.002 -0.00566,0.00312 -0.009,0.00312 v 0.087907 c 0.0236,0 0.04577,-0.00809 0.063387,-0.021965 z M 0.8954222,0.9163967 0.7641191,0.7645176 0.6976149,0.8220144 0.8289238,0.9738876 Z M 0.5639676,0.761857 c -0.00335,0 -0.00647,-0.00113 -0.009,-0.00312 l -0.054384,0.069065 c 0.017615,0.013872 0.039785,0.021965 0.063385,0.021965 z m -0.009,-0.00312 c -0.00229,-0.0018 -0.00403,-0.00425 -0.00493,-0.00719 l -0.083997,0.025927 c 0.0063,0.020406 0.018584,0.037765 0.034541,0.050329 z M 0.4430837,0.9722877 0.5623442,0.8204145 0.4932051,0.7661234 0.3739452,0.9179966 Z m 0.06468,-0.3577035 c -8.949e-4,-0.0029 -8.585e-4,-0.0059 0,-0.00867 l -0.083996,-0.025932 c -0.00595,0.019275 -0.00623,0.040343 -6e-7,0.060532 z m 0,-0.00867 c 8.873e-4,-0.00288 0.00262,-0.00543 0.0051,-0.00732 l -0.053403,-0.069827 c -0.017337,0.013262 -0.029546,0.031318 -0.035688,0.051214 z m -0.024929,-0.053471 -0.2131653,-0.089833 -0.034139,0.081007 0.2131653,0.089835 z"
     fill="#1C274C"
     id="path2"
     style="fill:#000000;stroke-width:0.0586044" />
</svg>
